# xmcd
#
# Track frame offsets:
#	150
#	21811
#	41813
#	63316
#	76711
#	101089
#	121107
#	141088
#	164774
#
# Disc length: 2504 seconds
#
# Revision: 1
# Processed by: cddbd v1.5.2PL0 Copyright (c) Steve Scherf et al.
# Submitted via: audiograbber 1.83.01
#
DISCID=7209c609
DTITLE=Juli Wood Earma Thompson - Blues for Earma Jean
DYEAR=1900
DGENRE=
TTITLE0=Gravy Waltz
TTITLE1=The More I See You
TTITLE2=Evil Woman Blues
TTITLE3=Three Little Words
TTITLE4=Its Easy to Remember
TTITLE5=SKJ
TTITLE6=Speak Low
TTITLE7=We'll Be Together Again
TTITLE8=Blues for Earma Jean
EXTD=
EXTT0=
EXTT1=
EXTT2=
EXTT3=
EXTT4=
EXTT5=
EXTT6=
EXTT7=
EXTT8=
PLAYORDER=
